<svg xmlns="http://www.w3.org/2000/svg" viewBox="0 0 80 96" role="img" aria-label="X-Hydride Lab">
  <defs>
    <radialGradient id="halo" cx="50%" cy="50%" r="50%">
      <stop offset="0%" stop-color="rgba(29,233,198,0.55)"/>
      <stop offset="50%" stop-color="rgba(45,212,212,0.18)"/>
      <stop offset="100%" stop-color="rgba(29,233,198,0)"/>
    </radialGradient>
    <radialGradient id="floor" cx="50%" cy="50%" r="50%">
      <stop offset="0%" stop-color="rgba(120,250,230,0.85)"/>
      <stop offset="40%" stop-color="rgba(45,212,212,0.18)"/>
      <stop offset="100%" stop-color="rgba(29,233,198,0)"/>
    </radialGradient>
    <filter id="b" x="-30%" y="-30%" width="160%" height="160%">
      <feGaussianBlur stdDeviation="0.65"/>
    </filter>
    <filter id="bs" x="-50%" y="-50%" width="200%" height="200%">
      <feGaussianBlur stdDeviation="2.4"/>
    </filter>
  </defs>
  <ellipse cx="40" cy="40" rx="34" ry="30" fill="url(#halo)"/>
  <g fill="#1de9c6" filter="url(#bs)" opacity="0.55">
    <rect x="33" y="33" width="6" height="6"/><rect x="28" y="28" width="6" height="6"/><rect x="22" y="22" width="6" height="6"/><rect x="17" y="17" width="6" height="6"/>
    <rect x="41" y="33" width="6" height="6"/><rect x="46" y="28" width="6" height="6"/><rect x="52" y="22" width="6" height="6"/><rect x="57" y="17" width="6" height="6"/>
    <rect x="41" y="41" width="6" height="6"/><rect x="46" y="46" width="6" height="6"/><rect x="52" y="52" width="6" height="6"/><rect x="57" y="57" width="6" height="6"/>
    <rect x="33" y="41" width="6" height="6"/><rect x="28" y="46" width="6" height="6"/><rect x="22" y="52" width="6" height="6"/><rect x="17" y="57" width="6" height="6"/>
    <rect x="35" y="35" width="10" height="10"/>
  </g>
  <g fill="#1de9c6" filter="url(#b)">
    <rect x="33" y="33" width="6" height="6"/><rect x="28" y="28" width="6" height="6"/><rect x="22" y="22" width="6" height="6"/><rect x="17" y="17" width="6" height="6"/>
    <rect x="41" y="33" width="6" height="6"/><rect x="46" y="28" width="6" height="6"/><rect x="52" y="22" width="6" height="6"/><rect x="57" y="17" width="6" height="6"/>
    <rect x="41" y="41" width="6" height="6"/><rect x="46" y="46" width="6" height="6"/><rect x="52" y="52" width="6" height="6"/><rect x="57" y="57" width="6" height="6"/>
    <rect x="33" y="41" width="6" height="6"/><rect x="28" y="46" width="6" height="6"/><rect x="22" y="52" width="6" height="6"/><rect x="17" y="57" width="6" height="6"/>
  </g>
  <g fill="#a7f4e6" opacity="0.85">
    <rect x="34.4" y="34.4" width="3.2" height="3.2"/><rect x="29.4" y="29.4" width="3.2" height="3.2"/><rect x="23.4" y="23.4" width="3.2" height="3.2"/><rect x="18.4" y="18.4" width="3.2" height="3.2"/>
    <rect x="42.4" y="34.4" width="3.2" height="3.2"/><rect x="47.4" y="29.4" width="3.2" height="3.2"/><rect x="53.4" y="23.4" width="3.2" height="3.2"/><rect x="58.4" y="18.4" width="3.2" height="3.2"/>
    <rect x="42.4" y="42.4" width="3.2" height="3.2"/><rect x="47.4" y="47.4" width="3.2" height="3.2"/><rect x="53.4" y="53.4" width="3.2" height="3.2"/><rect x="58.4" y="58.4" width="3.2" height="3.2"/>
    <rect x="34.4" y="42.4" width="3.2" height="3.2"/><rect x="29.4" y="47.4" width="3.2" height="3.2"/><rect x="23.4" y="53.4" width="3.2" height="3.2"/><rect x="18.4" y="58.4" width="3.2" height="3.2"/>
  </g>
  <rect x="35.5" y="35.5" width="9" height="9" fill="#1de9c6"/>
  <rect x="37.5" y="37.5" width="5" height="5" fill="#a7f4e6"/>
  <ellipse cx="40" cy="88" rx="30" ry="2.6" fill="url(#floor)"/>
</svg>
